<?xml version="1.0" encoding="UTF-8"?>
<svg version="1.1" viewBox="0 0 1000 1000" xmlns="http://www.w3.org/2000/svg">
 <g transform="translate(0 -52.362)">
  <path transform="matrix(1.1729 0 0 1.2563 -13.239 65.798)" d="m646.5 374.72a213.14 199 0 1 1 -426.28 0 213.14 199 0 1 1 426.28 0z" fill="none" stroke="#000" stroke-width="14.828"/>
  <path d="m495.07 306.54c-78.221 0-147.32 39.052-188.88 98.719l68.844 119.28 125.84-217.94c-1.9315-0.0479-3.8695-0.0625-5.8125-0.0625z" fill="#ef00ef" fill-rule="evenodd"/>
  <path d="m514.32 307.36-68.875 119.28h251.69c-36.094-66.22-103.78-112.73-182.81-119.28z" fill="#ff5151" fill-rule="evenodd"/>
  <path d="m298.82 416.51c-21.422 34.943-33.75 76.041-33.75 120.03 0 35.029 7.837 68.221 21.844 97.938h137.75l-125.84-217.97z" fill="#5d5dff" fill-rule="evenodd"/>
  <path d="m565.44 438.64 125.84 217.94c21.422-34.943 33.781-76.041 33.781-120.03 0-35.015-7.8482-68.2-21.844-97.906h-137.78z" fill="#ff8c41" fill-rule="evenodd"/>
  <path d="m615.04 548.58-125.81 217.91c1.9418 0.0484 3.8903 0.0625 5.8438 0.0625 78.209 0 147.29-39.036 188.84-98.688l-68.875-119.28z" fill="#ffff5d" fill-rule="evenodd"/>
  <path d="m293.01 646.48c36.098 66.2 103.76 112.7 182.78 119.25l68.844-119.25h-251.62z" fill="#5fff5f" fill-rule="evenodd"/>
 </g>
</svg>
